HIERARCHY
ROOT Hips
{
    OFFSET 0.000000 0.000000 0.000000
    CHANNELS 6 Xposition Yposition Zposition Zrotation Xrotation Yrotation
    JOINT Spine
    {
        OFFSET -0.000000 7.246840 0.000000
        CHANNELS 3 Zrotation Xrotation Yrotation
        JOINT Spine1
        {
            OFFSET -0.000000 20.289354 0.000000
            CHANNELS 3 Zrotation Xrotation Yrotation
            JOINT Neck
            {
                OFFSET -0.000000 20.206032 1.836912
                CHANNELS 3 Zrotation Xrotation Yrotation
                JOINT Head
                {
                    OFFSET -0.000000 12.372654 -1.767522
                    CHANNELS 3 Zrotation Xrotation Yrotation
                    End Site
                    {
                        OFFSET -0.000000 22.094025 0.000000
                    }
                }
            }
            JOINT LeftShoulder
            {
                OFFSET 3.465871 17.201674 -0.568930
                CHANNELS 3 Zrotation Xrotation Yrotation
                JOINT LeftArm
                {
                    OFFSET 14.070313 0.000000 0.000000
                    CHANNELS 3 Zrotation Xrotation Yrotation
                    JOINT LeftForeArm
                    {
                        OFFSET 26.549477 0.000000 0.000000
                        CHANNELS 3 Zrotation Xrotation Yrotation
                        JOINT LeftHand
                        {
                            OFFSET 18.880413 0.000000 0.000000
                            CHANNELS 3 Zrotation Xrotation Yrotation
                            End Site
                            {
                                OFFSET 13.256415 0.000000 0.000000
                            }
                        }
                    }
                }
            }
            JOINT RightShoulder
            {
                OFFSET -3.526370 17.201674 -0.568930
                CHANNELS 3 Zrotation Xrotation Yrotation
                JOINT RightArm
                {
                    OFFSET -14.070313 0.000000 0.000000
                    CHANNELS 3 Zrotation Xrotation Yrotation
                    JOINT RightForeArm
                    {
                        OFFSET -26.549477 0.000000 0.000000
                        CHANNELS 3 Zrotation Xrotation Yrotation
                        JOINT RightHand
                        {
                            OFFSET -18.880413 0.000000 0.000000
                            CHANNELS 3 Zrotation Xrotation Yrotation
                            End Site
                            {
                                OFFSET -13.256415 0.000000 0.000000
                            }
                        }
                    }
                }
            }
        }
    }
    JOINT LeftUpLeg
    {
        OFFSET 8.837609 0.000000 0.000000
        CHANNELS 3 Zrotation Xrotation Yrotation
        JOINT LeftLeg
        {
            OFFSET -0.000000 -41.345005 0.000000
            CHANNELS 3 Zrotation Xrotation Yrotation
            JOINT LeftFoot
            {
                OFFSET -0.000000 -35.500874 0.000000
                CHANNELS 3 Zrotation Xrotation Yrotation
                JOINT LeftToeBase
                {
                    OFFSET -0.000000 -5.744446 13.256415
                    CHANNELS 3 Zrotation Xrotation Yrotation
                    End Site
                    {
                        OFFSET -0.000000 0.000000 3.535044
                    }
                }
            }
        }
    }
    JOINT RightUpLeg
    {
        OFFSET -8.837609 0.000000 0.000000
        CHANNELS 3 Zrotation Xrotation Yrotation
        JOINT RightLeg
        {
            OFFSET -0.000000 -41.345005 0.000000
            CHANNELS 3 Zrotation Xrotation Yrotation
            JOINT RightFoot
            {
                OFFSET -0.000000 -35.500874 0.000000
                CHANNELS 3 Zrotation Xrotation Yrotation
                JOINT RightToeBase
                {
                    OFFSET -0.000000 -5.744446 13.256415
                    CHANNELS 3 Zrotation Xrotation Yrotation
                    End Site
                    {
                        OFFSET -0.000000 0.000000 3.535044
                    }
                }
            }
        }
    }
}
MOTION
Frames:    14
Frame Time:    0.010000
1.899463    82.491013    -77.736809    3.276002    2.684184    1.166796    -3.955064    -13.263736    -1.104638    1.022193    1.374908    -0.656970    -0.963849    34.494392    -2.750804    5.264661    -14.036245    -1.660969    20.359209    2.910339    6.622621    -33.147751    8.641121    -12.631082    7.943178    -8.117186    -9.982736    -33.401634    -6.267728    -3.895838    -15.564722    0.757139    10.376430    22.961983    6.998884    8.446644    -3.598202    -6.666327    1.471004    12.661656    -4.668080    17.543879    -3.027610    6.321044    -1.546260    -2.601099    -8.135930    -4.831713    4.106087    1.818498    0.658019    0.396305    -0.021587    -0.554870    -8.080758    5.640963    2.610310    7.912686    -9.525923    4.327014    -3.258022    -1.916746    -9.282679    -0.057382    1.799926    0.100958    
1.892306    82.491806    -77.714523    3.251962    2.695091    1.108040    -3.957208    -13.319748    -1.086649    1.030099    1.406980    -0.637073    -0.956544    34.486485    -2.771116    5.244772    -14.008879    -1.687098    20.357937    2.917934    6.639966    -33.148396    8.650620    -12.627774    7.916720    -8.118806    -9.955625    -33.400085    -6.290353    -3.839724    -15.588583    0.762309    10.379602    22.980537    7.039470    8.429895    -3.589689    -6.716144    1.483176    12.625625    -4.721562    17.560270    -3.005912    6.342428    -1.549184    -2.572623    -8.174500    -4.870596    4.152523    1.845530    0.674356    0.333288    -0.066713    -0.466765    -8.046131    5.624883    2.595992    7.904975    -9.503188    4.325208    -3.256874    -1.916707    -9.230107    -0.067794    1.769170    0.119316    
1.880648    82.490417    -77.694061    3.236015    2.696871    1.054522    -3.969850    -13.356876    -1.071385    1.025847    1.428899    -0.619135    -0.872677    34.505192    -2.811648    5.133067    -14.023873    -1.742737    20.363880    2.904883    6.659129    -33.142975    8.661160    -12.614307    7.902956    -8.094610    -9.955635    -33.401379    -6.294480    -3.748435    -15.595806    0.758696    10.382858    23.019405    7.022401    8.412842    -3.604054    -6.767194    1.490906    12.571238    -4.781788    17.551771    -2.983841    6.367639    -1.542639    -2.591080    -8.184152    -4.751754    4.165330    1.834812    0.639815    0.336677    -0.075572    -0.471536    -8.020521    5.614192    2.645255    7.890489    -9.483206    4.317154    -3.238624    -1.928982    -9.215412    -0.084799    1.732736    0.149303    
1.874693    82.489105    -77.671883    3.222247    2.702158    0.992455    -3.963729    -13.409146    -1.049725    0.998638    1.462323    -0.596278    -0.912792    34.486855    -2.787059    5.177914    -13.968290    -1.714980    20.381960    2.879281    6.658141    -33.143433    8.695354    -12.573578    7.918761    -8.032470    -9.915356    -33.402370    -6.240107    -3.726230    -15.604046    0.752630    10.403884    23.077879    6.963282    8.367101    -3.642246    -6.829373    1.492223    12.541075    -4.837198    17.651255    -2.977561    6.391666    -1.524376    -2.569445    -8.203959    -4.718766    4.190479    1.825785    0.630986    0.321051    -0.091525    -0.449694    -8.004431    5.601847    2.699635    7.887084    -9.464554    4.299849    -3.229083    -1.956339    -9.209718    -0.113249    1.749540    0.199359    
1.861550    82.487984    -77.653534    3.208586    2.698507    0.941405    -3.981278    -13.435721    -1.037953    0.993934    1.477428    -0.581596    -0.960230    34.481930    -2.781747    5.241719    -13.921895    -1.703417    20.388378    2.860082    6.657282    -33.137066    8.734384    -12.535490    7.951099    -7.973786    -9.874588    -33.430538    -6.179864    -3.727427    -15.593133    0.739755    10.423193    23.111532    6.900798    8.333743    -3.680243    -6.853120    1.506225    12.597469    -4.855053    17.617613    -2.954671    6.401344    -1.507311    -2.577977    -8.189141    -4.715111    4.103952    1.779790    0.707453    0.372678    -0.090027    -0.522004    -7.978116    5.591048    2.762957    7.865691    -9.433707    4.315848    -3.258165    -1.980948    -9.216827    -0.092090    1.738420    0.162130    
1.851957    82.486641    -77.633575    3.199290    2.691736    0.884717    -3.991482    -13.469434    -1.021099    0.987740    1.506996    -0.562536    -0.965391    34.476048    -2.786708    5.221417    -13.888667    -1.716231    20.371420    2.865235    6.631097    -33.104877    8.737658    -12.497321    7.951827    -7.912710    -9.819784    -33.400204    -6.114664    -3.756637    -15.591247    0.747773    10.434128    23.125368    6.831687    8.330436    -3.693561    -6.866510    1.497177    12.643824    -4.864028    17.594025    -2.952952    6.425987    -1.455690    -2.549359    -8.193820    -4.693318    4.175713    1.775523    0.622829    0.300087    -0.122690    -0.420410    -7.963965    5.583630    2.820464    7.862849    -9.403678    4.326773    -3.249207    -2.010970    -9.247427    -0.091947    1.719751    0.161910    
1.840137    82.485359    -77.613655    3.187866    2.669831    0.825814    -4.000760    -13.482635    -1.001235    0.978470    1.530238    -0.541277    -1.038895    34.455914    -2.788678    5.311732    -13.815399    -1.711223    20.384577    2.810649    6.619696    -33.112103    8.805136    -12.443793    7.975502    -7.852223    -9.759468    -33.385010    -6.037273    -3.821537    -15.571312    0.742499    10.443972    23.110941    6.838778    8.329573    -3.694896    -6.863125    1.465782    12.775040    -4.842010    17.586288    -2.920821    6.448603    -1.471872    -2.585203    -8.151375    -4.617051    4.173543    1.710256    0.657284    0.335728    -0.101718    -0.470281    -7.943312    5.584711    2.863907    7.854395    -9.356856    4.318166    -3.258668    -2.043980    -9.215262    -0.100116    1.708313    0.176317    
1.827210    82.484772    -77.596123    3.171081    2.647831    0.773217    -4.009932    -13.481897    -0.982278    0.979574    1.538353    -0.521428    -1.030543    34.453598    -2.801622    5.272063    -13.778096    -1.735104    20.367455    2.827973    6.631580    -33.089455    8.803846    -12.454399    7.963385    -7.807439    -9.739229    -33.343334    -5.991261    -3.838314    -15.574130    0.717649    10.458676    23.128815    6.859242    8.311607    -3.698374    -6.857751    1.419841    12.909510    -4.816082    17.594732    -2.891550    6.471720    -1.451723    -2.583550    -8.127924    -4.678851    4.122935    1.690080    0.717189    0.323002    -0.131461    -0.452536    -7.924526    5.583166    2.944846    7.864070    -9.305820    4.312527    -3.290172    -2.080908    -9.267973    -0.126788    1.740512    0.223215    
1.811041    82.484528    -77.577538    3.152971    2.621492    0.725100    -4.018839    -13.476361    -0.968480    0.975172    1.541802    -0.506586    -0.985067    34.455696    -2.825050    5.188005    -13.737974    -1.774794    20.364082    2.865237    6.650441    -33.076992    8.775238    -12.489921    7.949406    -7.796110    -9.674464    -33.331104    -5.959032    -3.928929    -15.580311    0.701763    10.485846    23.158375    6.860795    8.294820    -3.688424    -6.841460    1.358816    13.016412    -4.781607    17.624868    -2.868376    6.499815    -1.395586    -2.596422    -8.089915    -4.609689    4.137103    1.619592    0.686475    0.349922    -0.089836    -0.490129    -7.886912    5.593643    2.946124    7.838577    -9.262033    4.336139    -3.274752    -2.117748    -9.226641    -0.111399    1.778158    0.196044    
1.802838    82.483780    -77.556137    3.136393    2.588845    0.665846    -4.005881    -13.473672    -0.939633    0.945777    1.561682    -0.479241    -1.020153    34.428402    -2.812077    5.237337    -13.663734    -1.757890    20.367437    2.887908    6.665617    -33.069122    8.755807    -12.524566    7.946417    -7.780229    -9.641695    -33.373520    -5.931502    -3.970955    -15.575502    0.689599    10.507031    23.183735    6.828000    8.262197    -3.653149    -6.831377    1.311876    13.033256    -4.768933    17.640507    -2.836429    6.535439    -1.404539    -2.551965    -8.116436    -4.944510    4.023467    1.679994    0.886709    0.231768    -0.297366    -0.325038    -7.865739    5.610627    2.972662    7.835020    -9.236308    4.312313    -3.233860    -2.130013    -9.158575    -0.094535    1.717950    0.166470    
1.793585    82.483894    -77.536736    3.124066    2.561089    0.617123    -3.995853    -13.471220    -0.910567    0.914119    1.581493    -0.451186    -0.984366    34.390556    -2.830750    5.201570    -13.578683    -1.783368    20.373705    2.851965    6.681705    -33.048950    8.814858    -12.548005    7.941830    -7.749247    -9.628737    -33.418015    -5.906006    -3.950876    -15.584031    0.671420    10.499755    23.240992    6.805972    8.246046    -3.636740    -6.867522    1.263161    12.977314    -4.812873    17.664883    -2.810305    6.563973    -1.426750    -2.638932    -8.014879    -4.557074    4.195086    1.528105    0.782354    0.358768    -0.047223    -0.502391    -7.852420    5.621586    2.981692    7.843995    -9.190207    4.347632    -3.251318    -2.152370    -9.162538    -0.128662    1.729503    0.226539    
1.787145    82.482971    -77.515045    3.111211    2.528920    0.559387    -3.980165    -13.469450    -0.875243    0.878690    1.601850    -0.417413    -0.999175    34.365906    -2.838311    5.261684    -13.500903    -1.781618    20.371717    2.879247    6.675176    -33.029423    8.799231    -12.552769    7.964322    -7.731095    -9.695822    -33.508011    -5.891969    -3.903813    -15.588507    0.690420    10.510659    23.306414    6.695642    8.212850    -3.643624    -6.942397    1.237700    12.902419    -4.902350    17.648891    -2.800320    6.601818    -1.392807    -2.571608    -8.048194    -4.912523    4.035750    1.578637    0.958659    0.218234    -0.257471    -0.305985    -7.834460    5.643619    2.996105    7.837347    -9.167658    4.327882    -3.229447    -2.160836    -9.070611    -0.063366    1.675113    0.111634    
1.781880    82.482567    -77.494568    3.104645    2.509771    0.509219    -3.977342    -13.483969    -0.847916    0.861199    1.632876    -0.389915    -1.057583    34.337112    -2.835249    5.365032    -13.426272    -1.765462    20.362719    2.879986    6.684862    -33.003166    8.880245    -12.572573    8.005136    -7.696674    -9.705694    -33.613853    -5.849761    -3.902474    -15.598608    0.701885    10.516715    23.357523    6.573975    8.196576    -3.638503    -6.971964    1.198921    12.840849    -4.947762    17.607075    -2.796479    6.627768    -1.369956    -2.594061    -7.978783    -4.713051    4.141940    1.458918    0.895045    0.300471    -0.058853    -0.420786    -7.829040    5.652692    3.009784    7.850323    -9.134738    4.377935    -3.249063    -2.175538    -9.098519    -0.078374    1.660804    0.138093    
1.777755    82.480705    -77.473190    3.103933    2.490796    0.466635    -3.978327    -13.489272    -0.822883    0.839559    1.645216    -0.364246    -1.020103    34.339191    -2.849005    5.340301    -13.396704    -1.780721    20.370411    2.885922    6.673353    -32.993450    8.971698    -12.557610    8.010067    -7.746756    -9.747194    -33.573555    -5.876837    -3.973554    -15.600745    0.730580    10.511401    23.388248    6.523095    8.206104    -3.652668    -6.995648    1.152620    12.814366    -4.983894    17.546860    -2.789495    6.658835    -1.396302    -2.555251    -8.021833    -4.921722    4.108253    1.531003    0.982358    0.150867    -0.276226    -0.211554    -7.822161    5.673305    2.995734    7.836374    -9.131551    4.361656    -3.205282    -2.186577    -9.009873    -0.070460    1.633696    0.124184    
